<mxfile host="65bd71144e">
    <diagram name="Transect definition" id="A8BRmbT5wvfJh32Th10J">
        <mxGraphModel dx="524" dy="331" grid="1" gridSize="10" guides="1" tooltips="1" connect="1" arrows="1" fold="1" page="1" pageScale="1" pageWidth="413" pageHeight="291" math="0" shadow="0">
            <root>
                <mxCell id="0"/>
                <mxCell id="1" parent="0"/>
                <mxCell id="ZzQDjTmpz0duFavGyw5O-1" value="" style="curved=1;endArrow=none;html=1;rounded=0;endFill=0;dashed=1;strokeColor=#0000FF;" parent="1" edge="1">
                    <mxGeometry width="50" height="50" relative="1" as="geometry">
                        <mxPoint x="24" y="560" as="sourcePoint"/>
                        <mxPoint x="334" y="320" as="targetPoint"/>
                        <Array as="points">
                            <mxPoint x="104" y="540"/>
                            <mxPoint x="204" y="470"/>
                            <mxPoint x="184" y="430"/>
                            <mxPoint x="244" y="420"/>
                            <mxPoint x="164" y="320"/>
                        </Array>
                    </mxGeometry>
                </mxCell>
                <mxCell id="ZzQDjTmpz0duFavGyw5O-9" value="" style="curved=1;endArrow=none;html=1;rounded=0;endFill=0;strokeColor=#B20000;fillColor=#e51400;" parent="1" edge="1">
                    <mxGeometry width="50" height="50" relative="1" as="geometry">
                        <mxPoint x="44" y="569" as="sourcePoint"/>
                        <mxPoint x="354" y="329" as="targetPoint"/>
                        <Array as="points">
                            <mxPoint x="124" y="549"/>
                            <mxPoint x="180" y="520"/>
                            <mxPoint x="224" y="479"/>
                            <mxPoint x="204" y="439"/>
                            <mxPoint x="260" y="410"/>
                            <mxPoint x="184" y="329"/>
                        </Array>
                    </mxGeometry>
                </mxCell>
                <mxCell id="ZzQDjTmpz0duFavGyw5O-10" value="" style="curved=1;endArrow=none;html=1;rounded=0;endFill=0;strokeColor=#C73500;fillColor=#fa6800;" parent="1" edge="1">
                    <mxGeometry width="50" height="50" relative="1" as="geometry">
                        <mxPoint x="30" y="540" as="sourcePoint"/>
                        <mxPoint x="290" y="300" as="targetPoint"/>
                        <Array as="points">
                            <mxPoint x="76" y="528"/>
                            <mxPoint x="176" y="458"/>
                            <mxPoint x="170" y="430"/>
                            <mxPoint x="216" y="408"/>
                            <mxPoint x="136" y="308"/>
                        </Array>
                    </mxGeometry>
                </mxCell>
                <mxCell id="ZzQDjTmpz0duFavGyw5O-11" value="" style="shape=flexArrow;endArrow=classic;html=1;rounded=0;width=8.205128205128206;endSize=6.164102564102564;endWidth=14.766600920447075;" parent="1" edge="1">
                    <mxGeometry width="50" height="50" relative="1" as="geometry">
                        <mxPoint x="85" y="540" as="sourcePoint"/>
                        <mxPoint x="140" y="516" as="targetPoint"/>
                    </mxGeometry>
                </mxCell>
                <mxCell id="ZzQDjTmpz0duFavGyw5O-14" value="" style="endArrow=none;html=1;rounded=0;" parent="1" edge="1">
                    <mxGeometry width="50" height="50" relative="1" as="geometry">
                        <mxPoint x="150" y="410" as="sourcePoint"/>
                        <mxPoint x="290" y="390" as="targetPoint"/>
                    </mxGeometry>
                </mxCell>
                <mxCell id="ZzQDjTmpz0duFavGyw5O-26" value="Reach #1" style="text;html=1;align=center;verticalAlign=middle;whiteSpace=wrap;rounded=0;fillColor=default;" parent="1" vertex="1">
                    <mxGeometry x="40" y="460" width="60" height="30" as="geometry"/>
                </mxCell>
                <mxCell id="ZzQDjTmpz0duFavGyw5O-29" value="Reach #2" style="text;html=1;align=center;verticalAlign=middle;whiteSpace=wrap;rounded=0;fillColor=default;" parent="1" vertex="1">
                    <mxGeometry x="280" y="340" width="60" height="30" as="geometry"/>
                </mxCell>
                <mxCell id="ZzQDjTmpz0duFavGyw5O-30" value="" style="shape=flexArrow;endArrow=classic;html=1;rounded=0;width=8.205128205128206;endSize=6.164102564102564;endWidth=14.766600920447075;" parent="1" edge="1">
                    <mxGeometry width="50" height="50" relative="1" as="geometry">
                        <mxPoint x="300" y="320" as="sourcePoint"/>
                        <mxPoint x="350" y="320" as="targetPoint"/>
                    </mxGeometry>
                </mxCell>
                <mxCell id="ZzQDjTmpz0duFavGyw5O-36" value="" style="group" parent="1" vertex="1" connectable="0">
                    <mxGeometry x="267" y="426" width="140" height="150" as="geometry"/>
                </mxCell>
                <mxCell id="ZzQDjTmpz0duFavGyw5O-8" value="" style="rounded=0;whiteSpace=wrap;html=1;movable=1;resizable=1;rotatable=1;deletable=1;editable=1;locked=0;connectable=1;" parent="ZzQDjTmpz0duFavGyw5O-36" vertex="1">
                    <mxGeometry width="140" height="150" as="geometry"/>
                </mxCell>
                <mxCell id="ZzQDjTmpz0duFavGyw5O-3" value="Legend" style="text;html=1;align=center;verticalAlign=middle;whiteSpace=wrap;rounded=0;fontSize=16;" parent="ZzQDjTmpz0duFavGyw5O-36" vertex="1">
                    <mxGeometry x="40" width="60" height="30" as="geometry"/>
                </mxCell>
                <mxCell id="ZzQDjTmpz0duFavGyw5O-6" value="River&amp;nbsp;&lt;span style=&quot;background-color: initial;&quot;&gt;centerline&lt;/span&gt;" style="text;html=1;align=center;verticalAlign=middle;resizable=0;points=[];autosize=1;strokeColor=none;fillColor=none;fontSize=8;" parent="ZzQDjTmpz0duFavGyw5O-36" vertex="1">
                    <mxGeometry x="55" y="45" width="80" height="20" as="geometry"/>
                </mxCell>
                <mxCell id="ZzQDjTmpz0duFavGyw5O-4" value="" style="curved=0;endArrow=none;html=1;rounded=0;endFill=0;dashed=1;strokeColor=#0000FF;" parent="ZzQDjTmpz0duFavGyw5O-36" edge="1">
                    <mxGeometry width="50" height="50" relative="1" as="geometry">
                        <mxPoint x="20" y="54.84000000000003" as="sourcePoint"/>
                        <mxPoint x="60" y="54.84000000000003" as="targetPoint"/>
                    </mxGeometry>
                </mxCell>
                <mxCell id="ZzQDjTmpz0duFavGyw5O-21" value="" style="curved=0;endArrow=none;html=1;rounded=0;endFill=0;strokeColor=#C73500;fillColor=#fa6800;" parent="ZzQDjTmpz0duFavGyw5O-36" edge="1">
                    <mxGeometry width="50" height="50" relative="1" as="geometry">
                        <mxPoint x="20" y="74.84000000000003" as="sourcePoint"/>
                        <mxPoint x="60" y="74.84000000000003" as="targetPoint"/>
                    </mxGeometry>
                </mxCell>
                <mxCell id="ZzQDjTmpz0duFavGyw5O-22" value="Left River&amp;nbsp;&lt;span style=&quot;background-color: initial;&quot;&gt;Bank&lt;/span&gt;" style="text;html=1;align=center;verticalAlign=middle;resizable=0;points=[];autosize=1;strokeColor=none;fillColor=none;fontSize=8;" parent="ZzQDjTmpz0duFavGyw5O-36" vertex="1">
                    <mxGeometry x="55" y="66" width="80" height="20" as="geometry"/>
                </mxCell>
                <mxCell id="ZzQDjTmpz0duFavGyw5O-23" value="" style="curved=0;endArrow=none;html=1;rounded=0;endFill=0;strokeColor=#B20000;fillColor=#e51400;" parent="ZzQDjTmpz0duFavGyw5O-36" edge="1">
                    <mxGeometry width="50" height="50" relative="1" as="geometry">
                        <mxPoint x="20" y="95" as="sourcePoint"/>
                        <mxPoint x="60" y="95" as="targetPoint"/>
                    </mxGeometry>
                </mxCell>
                <mxCell id="ZzQDjTmpz0duFavGyw5O-24" value="Right River&amp;nbsp;&lt;span style=&quot;background-color: initial;&quot;&gt;Bank&lt;/span&gt;" style="text;html=1;align=center;verticalAlign=middle;resizable=0;points=[];autosize=1;strokeColor=none;fillColor=none;fontSize=8;" parent="ZzQDjTmpz0duFavGyw5O-36" vertex="1">
                    <mxGeometry x="55" y="86" width="80" height="20" as="geometry"/>
                </mxCell>
                <mxCell id="2" value="" style="curved=0;endArrow=none;html=1;rounded=0;endFill=0;strokeColor=#000000;" parent="ZzQDjTmpz0duFavGyw5O-36" edge="1">
                    <mxGeometry width="50" height="50" relative="1" as="geometry">
                        <mxPoint x="20" y="115.84000000000003" as="sourcePoint"/>
                        <mxPoint x="60" y="115.84000000000003" as="targetPoint"/>
                    </mxGeometry>
                </mxCell>
                <mxCell id="3" value="Reach limit" style="text;html=1;align=center;verticalAlign=middle;resizable=0;points=[];autosize=1;strokeColor=none;fillColor=none;fontSize=8;" parent="ZzQDjTmpz0duFavGyw5O-36" vertex="1">
                    <mxGeometry x="65" y="106" width="60" height="20" as="geometry"/>
                </mxCell>
                <mxCell id="4" value="Reach limit" style="text;html=1;align=center;verticalAlign=middle;whiteSpace=wrap;rounded=0;fillColor=none;rotation=-8;fontSize=10;" parent="1" vertex="1">
                    <mxGeometry x="130" y="386" width="60" height="30" as="geometry"/>
                </mxCell>
            </root>
        </mxGraphModel>
    </diagram>
</mxfile>